<mxfile host="app.diagrams.net" modified="2021-03-31T19:56:54.855Z" agent="5.0 (Macintosh)" etag="4A22oxSpT0KQL7ow9039" version="14.5.4" type="github" pages="2">
  <diagram id="LiwJ15N01dgfeeIRayWH" name="Page-1">
    <mxGraphModel dx="1097" dy="1073" grid="1" gridSize="10" guides="1" tooltips="1" connect="1" arrows="1" fold="1" page="1" pageScale="1" pageWidth="827" pageHeight="1169" math="0" shadow="0">
      <root>
        <mxCell id="0" />
        <mxCell id="1" parent="0" />
        <mxCell id="Hq5LUID9zLeDu0aCojfT-1" value="Presenters" style="rounded=1;arcSize=10;whiteSpace=wrap;html=1;align=center;" vertex="1" parent="1">
          <mxGeometry x="190" y="60" width="100" height="40" as="geometry" />
        </mxCell>
        <mxCell id="Hq5LUID9zLeDu0aCojfT-2" value="Events" style="rounded=1;arcSize=10;whiteSpace=wrap;html=1;align=center;" vertex="1" parent="1">
          <mxGeometry x="190" y="150" width="100" height="40" as="geometry" />
        </mxCell>
        <mxCell id="Hq5LUID9zLeDu0aCojfT-24" style="edgeStyle=orthogonalEdgeStyle;rounded=1;orthogonalLoop=1;jettySize=auto;html=1;exitX=1;exitY=0.5;exitDx=0;exitDy=0;strokeColor=#000000;entryX=1;entryY=0.5;entryDx=0;entryDy=0;" edge="1" parent="1" source="Hq5LUID9zLeDu0aCojfT-4" target="Hq5LUID9zLeDu0aCojfT-4">
          <mxGeometry relative="1" as="geometry">
            <mxPoint x="220" y="260" as="targetPoint" />
          </mxGeometry>
        </mxCell>
        <mxCell id="Hq5LUID9zLeDu0aCojfT-4" value="Organisations" style="rounded=1;arcSize=10;whiteSpace=wrap;html=1;align=center;" vertex="1" parent="1">
          <mxGeometry x="190" y="240" width="100" height="40" as="geometry" />
        </mxCell>
        <mxCell id="Hq5LUID9zLeDu0aCojfT-9" value="" style="edgeStyle=entityRelationEdgeStyle;fontSize=12;html=1;endArrow=ERoneToMany;entryX=1;entryY=0.75;entryDx=0;entryDy=0;exitX=1;exitY=0.5;exitDx=0;exitDy=0;" edge="1" parent="1" source="Hq5LUID9zLeDu0aCojfT-4" target="Hq5LUID9zLeDu0aCojfT-2">
          <mxGeometry width="100" height="100" relative="1" as="geometry">
            <mxPoint x="230" y="260" as="sourcePoint" />
            <mxPoint x="640" y="80" as="targetPoint" />
          </mxGeometry>
        </mxCell>
        <mxCell id="Hq5LUID9zLeDu0aCojfT-10" value="Conceptual Design" style="text;html=1;strokeColor=none;fillColor=none;align=center;verticalAlign=middle;whiteSpace=wrap;rounded=0;" vertex="1" parent="1">
          <mxGeometry x="185" y="20" width="110" height="20" as="geometry" />
        </mxCell>
        <mxCell id="Hq5LUID9zLeDu0aCojfT-13" value="Locations" style="rounded=1;arcSize=10;whiteSpace=wrap;html=1;align=center;" vertex="1" parent="1">
          <mxGeometry x="190" y="320" width="100" height="40" as="geometry" />
        </mxCell>
        <mxCell id="Hq5LUID9zLeDu0aCojfT-14" value="" style="fontSize=12;html=1;endArrow=ERoneToMany;strokeColor=#000000;exitX=0.5;exitY=0;exitDx=0;exitDy=0;entryX=0.5;entryY=1;entryDx=0;entryDy=0;" edge="1" parent="1" source="Hq5LUID9zLeDu0aCojfT-13" target="Hq5LUID9zLeDu0aCojfT-4">
          <mxGeometry width="100" height="100" relative="1" as="geometry">
            <mxPoint x="170" y="350" as="sourcePoint" />
            <mxPoint x="270" y="250" as="targetPoint" />
          </mxGeometry>
        </mxCell>
        <mxCell id="Hq5LUID9zLeDu0aCojfT-15" value="&lt;div&gt;An organisation may host many events.&lt;/div&gt;&lt;div&gt;An event has only 1 host organisation.&lt;/div&gt;  " style="text;html=1;strokeColor=none;fillColor=none;align=center;verticalAlign=middle;whiteSpace=wrap;rounded=0;" vertex="1" parent="1">
          <mxGeometry x="360" y="190" width="230" height="50" as="geometry" />
        </mxCell>
        <mxCell id="Hq5LUID9zLeDu0aCojfT-16" value="An event can be a presentation, workshop or seminar" style="text;html=1;strokeColor=none;fillColor=none;align=center;verticalAlign=middle;whiteSpace=wrap;rounded=0;" vertex="1" parent="1">
          <mxGeometry x="355" y="160" width="310" height="20" as="geometry" />
        </mxCell>
        <mxCell id="Hq5LUID9zLeDu0aCojfT-17" value="&lt;div&gt;Each event can have many presenters. &lt;br&gt;&lt;/div&gt;&lt;div&gt;A presenter may present at more than one event.&lt;/div&gt;" style="text;html=1;strokeColor=none;fillColor=none;align=center;verticalAlign=middle;whiteSpace=wrap;rounded=0;" vertex="1" parent="1">
          <mxGeometry x="430" y="90" width="280" height="60" as="geometry" />
        </mxCell>
        <mxCell id="Hq5LUID9zLeDu0aCojfT-18" value="One location can have many organisations" style="text;html=1;strokeColor=none;fillColor=none;align=center;verticalAlign=middle;whiteSpace=wrap;rounded=0;" vertex="1" parent="1">
          <mxGeometry x="355" y="290" width="260" height="20" as="geometry" />
        </mxCell>
        <mxCell id="Hq5LUID9zLeDu0aCojfT-23" value="" style="edgeStyle=orthogonalEdgeStyle;fontSize=12;html=1;endArrow=ERoneToMany;strokeColor=#000000;entryX=0;entryY=0.5;entryDx=0;entryDy=0;" edge="1" parent="1" target="Hq5LUID9zLeDu0aCojfT-1">
          <mxGeometry width="100" height="100" relative="1" as="geometry">
            <mxPoint x="190" y="260" as="sourcePoint" />
            <mxPoint x="60" y="60" as="targetPoint" />
            <Array as="points">
              <mxPoint x="190" y="260" />
              <mxPoint x="150" y="260" />
              <mxPoint x="150" y="80" />
            </Array>
          </mxGeometry>
        </mxCell>
        <mxCell id="Hq5LUID9zLeDu0aCojfT-25" value="One organisation can have many presenters" style="text;html=1;strokeColor=none;fillColor=none;align=center;verticalAlign=middle;whiteSpace=wrap;rounded=0;" vertex="1" parent="1">
          <mxGeometry x="10" y="145" width="130" height="50" as="geometry" />
        </mxCell>
        <mxCell id="Hq5LUID9zLeDu0aCojfT-27" value="Event presenter" style="rounded=1;arcSize=10;whiteSpace=wrap;html=1;align=center;" vertex="1" parent="1">
          <mxGeometry x="314" y="100" width="100" height="40" as="geometry" />
        </mxCell>
        <mxCell id="Hq5LUID9zLeDu0aCojfT-28" value="" style="edgeStyle=orthogonalEdgeStyle;fontSize=12;html=1;endArrow=ERoneToMany;strokeColor=#000000;exitX=1;exitY=0.25;exitDx=0;exitDy=0;entryX=0.5;entryY=1;entryDx=0;entryDy=0;" edge="1" parent="1" source="Hq5LUID9zLeDu0aCojfT-2" target="Hq5LUID9zLeDu0aCojfT-27">
          <mxGeometry width="100" height="100" relative="1" as="geometry">
            <mxPoint x="300" y="330" as="sourcePoint" />
            <mxPoint x="400" y="230" as="targetPoint" />
          </mxGeometry>
        </mxCell>
        <mxCell id="Hq5LUID9zLeDu0aCojfT-29" value="" style="edgeStyle=orthogonalEdgeStyle;fontSize=12;html=1;endArrow=ERoneToMany;strokeColor=#000000;exitX=1;exitY=0.5;exitDx=0;exitDy=0;entryX=0.5;entryY=0;entryDx=0;entryDy=0;" edge="1" parent="1" source="Hq5LUID9zLeDu0aCojfT-1" target="Hq5LUID9zLeDu0aCojfT-27">
          <mxGeometry width="100" height="100" relative="1" as="geometry">
            <mxPoint x="300" y="330" as="sourcePoint" />
            <mxPoint x="400" y="230" as="targetPoint" />
          </mxGeometry>
        </mxCell>
        <mxCell id="Hq5LUID9zLeDu0aCojfT-31" value="Logical Design" style="text;html=1;strokeColor=none;fillColor=none;align=center;verticalAlign=middle;whiteSpace=wrap;rounded=0;" vertex="1" parent="1">
          <mxGeometry x="190" y="390" width="110" height="20" as="geometry" />
        </mxCell>
        <mxCell id="Hq5LUID9zLeDu0aCojfT-32" value="Events" style="swimlane;fontStyle=0;childLayout=stackLayout;horizontal=1;startSize=26;horizontalStack=0;resizeParent=1;resizeParentMax=0;resizeLast=0;collapsible=1;marginBottom=0;align=center;fontSize=14;" vertex="1" parent="1">
          <mxGeometry x="160" y="630" width="160" height="154" as="geometry" />
        </mxCell>
        <mxCell id="Hq5LUID9zLeDu0aCojfT-33" value="id" style="text;strokeColor=none;fillColor=none;spacingLeft=4;spacingRight=4;overflow=hidden;rotatable=0;points=[[0,0.5],[1,0.5]];portConstraint=eastwest;fontSize=12;fontStyle=4" vertex="1" parent="Hq5LUID9zLeDu0aCojfT-32">
          <mxGeometry y="26" width="160" height="30" as="geometry" />
        </mxCell>
        <mxCell id="Hq5LUID9zLeDu0aCojfT-34" value="name" style="text;strokeColor=none;fillColor=none;spacingLeft=4;spacingRight=4;overflow=hidden;rotatable=0;points=[[0,0.5],[1,0.5]];portConstraint=eastwest;fontSize=12;" vertex="1" parent="Hq5LUID9zLeDu0aCojfT-32">
          <mxGeometry y="56" width="160" height="30" as="geometry" />
        </mxCell>
        <mxCell id="Hq5LUID9zLeDu0aCojfT-40" value="type" style="text;strokeColor=none;fillColor=none;spacingLeft=4;spacingRight=4;overflow=hidden;rotatable=0;points=[[0,0.5],[1,0.5]];portConstraint=eastwest;fontSize=12;" vertex="1" parent="Hq5LUID9zLeDu0aCojfT-32">
          <mxGeometry y="86" width="160" height="34" as="geometry" />
        </mxCell>
        <mxCell id="Hq5LUID9zLeDu0aCojfT-58" value="*host_id" style="text;strokeColor=none;fillColor=none;spacingLeft=4;spacingRight=4;overflow=hidden;rotatable=0;points=[[0,0.5],[1,0.5]];portConstraint=eastwest;fontSize=12;" vertex="1" parent="Hq5LUID9zLeDu0aCojfT-32">
          <mxGeometry y="120" width="160" height="34" as="geometry" />
        </mxCell>
        <mxCell id="Hq5LUID9zLeDu0aCojfT-36" value="Organisations" style="swimlane;fontStyle=0;childLayout=stackLayout;horizontal=1;startSize=26;horizontalStack=0;resizeParent=1;resizeParentMax=0;resizeLast=0;collapsible=1;marginBottom=0;align=center;fontSize=14;" vertex="1" parent="1">
          <mxGeometry x="160" y="830" width="160" height="120" as="geometry" />
        </mxCell>
        <mxCell id="Hq5LUID9zLeDu0aCojfT-37" value="id" style="text;strokeColor=none;fillColor=none;spacingLeft=4;spacingRight=4;overflow=hidden;rotatable=0;points=[[0,0.5],[1,0.5]];portConstraint=eastwest;fontSize=12;fontStyle=4" vertex="1" parent="Hq5LUID9zLeDu0aCojfT-36">
          <mxGeometry y="26" width="160" height="34" as="geometry" />
        </mxCell>
        <mxCell id="Hq5LUID9zLeDu0aCojfT-38" value="name" style="text;strokeColor=none;fillColor=none;spacingLeft=4;spacingRight=4;overflow=hidden;rotatable=0;points=[[0,0.5],[1,0.5]];portConstraint=eastwest;fontSize=12;" vertex="1" parent="Hq5LUID9zLeDu0aCojfT-36">
          <mxGeometry y="60" width="160" height="30" as="geometry" />
        </mxCell>
        <mxCell id="Hq5LUID9zLeDu0aCojfT-39" value="* location_id" style="text;strokeColor=none;fillColor=none;spacingLeft=4;spacingRight=4;overflow=hidden;rotatable=0;points=[[0,0.5],[1,0.5]];portConstraint=eastwest;fontSize=12;" vertex="1" parent="Hq5LUID9zLeDu0aCojfT-36">
          <mxGeometry y="90" width="160" height="30" as="geometry" />
        </mxCell>
        <mxCell id="Hq5LUID9zLeDu0aCojfT-41" value="Locations" style="swimlane;fontStyle=0;childLayout=stackLayout;horizontal=1;startSize=26;horizontalStack=0;resizeParent=1;resizeParentMax=0;resizeLast=0;collapsible=1;marginBottom=0;align=center;fontSize=14;" vertex="1" parent="1">
          <mxGeometry x="160" y="980" width="160" height="116" as="geometry" />
        </mxCell>
        <mxCell id="Hq5LUID9zLeDu0aCojfT-42" value="id" style="text;strokeColor=none;fillColor=none;spacingLeft=4;spacingRight=4;overflow=hidden;rotatable=0;points=[[0,0.5],[1,0.5]];portConstraint=eastwest;fontSize=12;fontStyle=4" vertex="1" parent="Hq5LUID9zLeDu0aCojfT-41">
          <mxGeometry y="26" width="160" height="30" as="geometry" />
        </mxCell>
        <mxCell id="Hq5LUID9zLeDu0aCojfT-43" value="city" style="text;strokeColor=none;fillColor=none;spacingLeft=4;spacingRight=4;overflow=hidden;rotatable=0;points=[[0,0.5],[1,0.5]];portConstraint=eastwest;fontSize=12;" vertex="1" parent="Hq5LUID9zLeDu0aCojfT-41">
          <mxGeometry y="56" width="160" height="30" as="geometry" />
        </mxCell>
        <mxCell id="Hq5LUID9zLeDu0aCojfT-44" value="country" style="text;strokeColor=none;fillColor=none;spacingLeft=4;spacingRight=4;overflow=hidden;rotatable=0;points=[[0,0.5],[1,0.5]];portConstraint=eastwest;fontSize=12;" vertex="1" parent="Hq5LUID9zLeDu0aCojfT-41">
          <mxGeometry y="86" width="160" height="30" as="geometry" />
        </mxCell>
        <mxCell id="Hq5LUID9zLeDu0aCojfT-45" value="Presenters" style="swimlane;fontStyle=0;childLayout=stackLayout;horizontal=1;startSize=26;horizontalStack=0;resizeParent=1;resizeParentMax=0;resizeLast=0;collapsible=1;marginBottom=0;align=center;fontSize=14;" vertex="1" parent="1">
          <mxGeometry x="160" y="440" width="160" height="154" as="geometry">
            <mxRectangle x="160" y="440" width="100" height="26" as="alternateBounds" />
          </mxGeometry>
        </mxCell>
        <mxCell id="Hq5LUID9zLeDu0aCojfT-46" value="id" style="text;strokeColor=none;fillColor=none;spacingLeft=4;spacingRight=4;overflow=hidden;rotatable=0;points=[[0,0.5],[1,0.5]];portConstraint=eastwest;fontSize=12;fontStyle=4" vertex="1" parent="Hq5LUID9zLeDu0aCojfT-45">
          <mxGeometry y="26" width="160" height="30" as="geometry" />
        </mxCell>
        <mxCell id="Hq5LUID9zLeDu0aCojfT-47" value="first_name" style="text;strokeColor=none;fillColor=none;spacingLeft=4;spacingRight=4;overflow=hidden;rotatable=0;points=[[0,0.5],[1,0.5]];portConstraint=eastwest;fontSize=12;" vertex="1" parent="Hq5LUID9zLeDu0aCojfT-45">
          <mxGeometry y="56" width="160" height="30" as="geometry" />
        </mxCell>
        <mxCell id="Hq5LUID9zLeDu0aCojfT-48" value="last_name" style="text;strokeColor=none;fillColor=none;spacingLeft=4;spacingRight=4;overflow=hidden;rotatable=0;points=[[0,0.5],[1,0.5]];portConstraint=eastwest;fontSize=12;" vertex="1" parent="Hq5LUID9zLeDu0aCojfT-45">
          <mxGeometry y="86" width="160" height="34" as="geometry" />
        </mxCell>
        <mxCell id="Hq5LUID9zLeDu0aCojfT-49" value="* organisation_id" style="text;strokeColor=none;fillColor=none;spacingLeft=4;spacingRight=4;overflow=hidden;rotatable=0;points=[[0,0.5],[1,0.5]];portConstraint=eastwest;fontSize=12;" vertex="1" parent="Hq5LUID9zLeDu0aCojfT-45">
          <mxGeometry y="120" width="160" height="34" as="geometry" />
        </mxCell>
        <mxCell id="Hq5LUID9zLeDu0aCojfT-50" value="Event Presenter" style="swimlane;fontStyle=0;childLayout=stackLayout;horizontal=1;startSize=26;horizontalStack=0;resizeParent=1;resizeParentMax=0;resizeLast=0;collapsible=1;marginBottom=0;align=center;fontSize=14;" vertex="1" parent="1">
          <mxGeometry x="380" y="530" width="160" height="86" as="geometry">
            <mxRectangle x="380" y="530" width="130" height="26" as="alternateBounds" />
          </mxGeometry>
        </mxCell>
        <mxCell id="Hq5LUID9zLeDu0aCojfT-51" value="*presenter_id" style="text;strokeColor=none;fillColor=none;spacingLeft=4;spacingRight=4;overflow=hidden;rotatable=0;points=[[0,0.5],[1,0.5]];portConstraint=eastwest;fontSize=12;fontStyle=4" vertex="1" parent="Hq5LUID9zLeDu0aCojfT-50">
          <mxGeometry y="26" width="160" height="30" as="geometry" />
        </mxCell>
        <mxCell id="Hq5LUID9zLeDu0aCojfT-52" value="*event_id" style="text;strokeColor=none;fillColor=none;spacingLeft=4;spacingRight=4;overflow=hidden;rotatable=0;points=[[0,0.5],[1,0.5]];portConstraint=eastwest;fontSize=12;fontStyle=4" vertex="1" parent="Hq5LUID9zLeDu0aCojfT-50">
          <mxGeometry y="56" width="160" height="30" as="geometry" />
        </mxCell>
        <mxCell id="Hq5LUID9zLeDu0aCojfT-55" value="" style="edgeStyle=orthogonalEdgeStyle;fontSize=12;html=1;endArrow=ERoneToMany;strokeColor=#000000;exitX=0;exitY=0.5;exitDx=0;exitDy=0;entryX=0;entryY=0.5;entryDx=0;entryDy=0;" edge="1" parent="1" source="Hq5LUID9zLeDu0aCojfT-37" target="Hq5LUID9zLeDu0aCojfT-49">
          <mxGeometry width="100" height="100" relative="1" as="geometry">
            <mxPoint x="300" y="670" as="sourcePoint" />
            <mxPoint x="400" y="570" as="targetPoint" />
            <Array as="points">
              <mxPoint x="130" y="873" />
              <mxPoint x="130" y="577" />
            </Array>
          </mxGeometry>
        </mxCell>
        <mxCell id="Hq5LUID9zLeDu0aCojfT-56" value="" style="edgeStyle=orthogonalEdgeStyle;fontSize=12;html=1;endArrow=ERoneToMany;strokeColor=#000000;exitX=0;exitY=0.5;exitDx=0;exitDy=0;entryX=0;entryY=0.5;entryDx=0;entryDy=0;" edge="1" parent="1" source="Hq5LUID9zLeDu0aCojfT-42" target="Hq5LUID9zLeDu0aCojfT-39">
          <mxGeometry width="100" height="100" relative="1" as="geometry">
            <mxPoint x="300" y="670" as="sourcePoint" />
            <mxPoint x="150" y="950" as="targetPoint" />
            <Array as="points">
              <mxPoint x="130" y="1021" />
              <mxPoint x="130" y="935" />
            </Array>
          </mxGeometry>
        </mxCell>
        <mxCell id="Hq5LUID9zLeDu0aCojfT-57" value="" style="edgeStyle=orthogonalEdgeStyle;fontSize=12;html=1;endArrow=ERoneToMany;strokeColor=#000000;entryX=0;entryY=0.5;entryDx=0;entryDy=0;exitX=0;exitY=0.5;exitDx=0;exitDy=0;" edge="1" parent="1" source="Hq5LUID9zLeDu0aCojfT-37" target="Hq5LUID9zLeDu0aCojfT-58">
          <mxGeometry width="100" height="100" relative="1" as="geometry">
            <mxPoint x="160" y="890" as="sourcePoint" />
            <mxPoint x="155" y="785" as="targetPoint" />
            <Array as="points">
              <mxPoint x="140" y="873" />
              <mxPoint x="140" y="767" />
            </Array>
          </mxGeometry>
        </mxCell>
        <mxCell id="Hq5LUID9zLeDu0aCojfT-59" value="" style="edgeStyle=orthogonalEdgeStyle;fontSize=12;html=1;endArrow=ERoneToMany;strokeColor=#000000;entryX=0;entryY=0.5;entryDx=0;entryDy=0;" edge="1" parent="1" target="Hq5LUID9zLeDu0aCojfT-52">
          <mxGeometry width="100" height="100" relative="1" as="geometry">
            <mxPoint x="320" y="670" as="sourcePoint" />
            <mxPoint x="400" y="570" as="targetPoint" />
            <Array as="points">
              <mxPoint x="350" y="670" />
              <mxPoint x="350" y="601" />
            </Array>
          </mxGeometry>
        </mxCell>
        <mxCell id="Hq5LUID9zLeDu0aCojfT-60" value="" style="edgeStyle=entityRelationEdgeStyle;fontSize=12;html=1;endArrow=ERoneToMany;strokeColor=#000000;exitX=1;exitY=0.25;exitDx=0;exitDy=0;entryX=0;entryY=0.5;entryDx=0;entryDy=0;" edge="1" parent="1" source="Hq5LUID9zLeDu0aCojfT-45" target="Hq5LUID9zLeDu0aCojfT-51">
          <mxGeometry width="100" height="100" relative="1" as="geometry">
            <mxPoint x="300" y="670" as="sourcePoint" />
            <mxPoint x="400" y="570" as="targetPoint" />
          </mxGeometry>
        </mxCell>
      </root>
    </mxGraphModel>
  </diagram>
  <diagram id="lTvOI98qmm349UJ_k9Ak" name="Page-2">
    <mxGraphModel dx="833" dy="1073" grid="1" gridSize="10" guides="1" tooltips="1" connect="1" arrows="1" fold="1" page="1" pageScale="1" pageWidth="827" pageHeight="1169" math="0" shadow="0">
      <root>
        <mxCell id="872lnzC2xmg9bQZJS1GH-0" />
        <mxCell id="872lnzC2xmg9bQZJS1GH-1" parent="872lnzC2xmg9bQZJS1GH-0" />
        <mxCell id="D6_BeKRXkFvPXLh14fCc-0" value="Presenters" style="shape=table;startSize=30;container=1;collapsible=1;childLayout=tableLayout;fixedRows=1;rowLines=0;fontStyle=1;align=center;resizeLast=1;fillColor=#21C0A5;strokeColor=#006658;fontColor=#5C5C5C;" vertex="1" parent="872lnzC2xmg9bQZJS1GH-1">
          <mxGeometry x="120" y="80" width="240" height="160" as="geometry" />
        </mxCell>
        <mxCell id="D6_BeKRXkFvPXLh14fCc-1" value="" style="shape=partialRectangle;collapsible=0;dropTarget=0;pointerEvents=0;fillColor=none;top=0;left=0;bottom=0;right=0;points=[[0,0.5],[1,0.5]];portConstraint=eastwest;strokeColor=#006658;fontColor=#5C5C5C;" vertex="1" parent="D6_BeKRXkFvPXLh14fCc-0">
          <mxGeometry y="30" width="240" height="30" as="geometry" />
        </mxCell>
        <mxCell id="D6_BeKRXkFvPXLh14fCc-2" value="PK" style="shape=partialRectangle;connectable=0;fillColor=none;top=0;left=0;bottom=0;right=0;fontStyle=1;overflow=hidden;strokeColor=#006658;fontColor=#5C5C5C;" vertex="1" parent="D6_BeKRXkFvPXLh14fCc-1">
          <mxGeometry width="60" height="30" as="geometry" />
        </mxCell>
        <mxCell id="D6_BeKRXkFvPXLh14fCc-3" value="id: INTEGER" style="shape=partialRectangle;connectable=0;fillColor=none;top=0;left=0;bottom=0;right=0;align=left;spacingLeft=6;fontStyle=5;overflow=hidden;strokeColor=#006658;fontColor=#5C5C5C;" vertex="1" parent="D6_BeKRXkFvPXLh14fCc-1">
          <mxGeometry x="60" width="180" height="30" as="geometry" />
        </mxCell>
        <mxCell id="D6_BeKRXkFvPXLh14fCc-4" value="" style="shape=partialRectangle;collapsible=0;dropTarget=0;pointerEvents=0;fillColor=none;top=0;left=0;bottom=1;right=0;points=[[0,0.5],[1,0.5]];portConstraint=eastwest;strokeColor=#006658;fontColor=#5C5C5C;" vertex="1" parent="D6_BeKRXkFvPXLh14fCc-0">
          <mxGeometry y="60" width="240" height="30" as="geometry" />
        </mxCell>
        <mxCell id="D6_BeKRXkFvPXLh14fCc-5" value="FK" style="shape=partialRectangle;connectable=0;fillColor=none;top=0;left=0;bottom=0;right=0;fontStyle=1;overflow=hidden;strokeColor=#006658;fontColor=#5C5C5C;" vertex="1" parent="D6_BeKRXkFvPXLh14fCc-4">
          <mxGeometry width="60" height="30" as="geometry" />
        </mxCell>
        <mxCell id="D6_BeKRXkFvPXLh14fCc-6" value="*organisation_id: INTEGER" style="shape=partialRectangle;connectable=0;fillColor=none;top=0;left=0;bottom=0;right=0;align=left;spacingLeft=6;fontStyle=1;overflow=hidden;strokeColor=#006658;fontColor=#5C5C5C;" vertex="1" parent="D6_BeKRXkFvPXLh14fCc-4">
          <mxGeometry x="60" width="180" height="30" as="geometry" />
        </mxCell>
        <mxCell id="D6_BeKRXkFvPXLh14fCc-7" value="" style="shape=partialRectangle;collapsible=0;dropTarget=0;pointerEvents=0;fillColor=none;top=0;left=0;bottom=0;right=0;points=[[0,0.5],[1,0.5]];portConstraint=eastwest;strokeColor=#006658;fontColor=#5C5C5C;" vertex="1" parent="D6_BeKRXkFvPXLh14fCc-0">
          <mxGeometry y="90" width="240" height="30" as="geometry" />
        </mxCell>
        <mxCell id="D6_BeKRXkFvPXLh14fCc-8" value="" style="shape=partialRectangle;connectable=0;fillColor=none;top=0;left=0;bottom=0;right=0;editable=1;overflow=hidden;strokeColor=#006658;fontColor=#5C5C5C;" vertex="1" parent="D6_BeKRXkFvPXLh14fCc-7">
          <mxGeometry width="60" height="30" as="geometry" />
        </mxCell>
        <mxCell id="D6_BeKRXkFvPXLh14fCc-9" value="first_name: TEXT" style="shape=partialRectangle;connectable=0;fillColor=none;top=0;left=0;bottom=0;right=0;align=left;spacingLeft=6;overflow=hidden;strokeColor=#006658;fontColor=#5C5C5C;" vertex="1" parent="D6_BeKRXkFvPXLh14fCc-7">
          <mxGeometry x="60" width="180" height="30" as="geometry" />
        </mxCell>
        <mxCell id="D6_BeKRXkFvPXLh14fCc-10" value="" style="shape=partialRectangle;collapsible=0;dropTarget=0;pointerEvents=0;fillColor=none;top=0;left=0;bottom=0;right=0;points=[[0,0.5],[1,0.5]];portConstraint=eastwest;strokeColor=#006658;fontColor=#5C5C5C;" vertex="1" parent="D6_BeKRXkFvPXLh14fCc-0">
          <mxGeometry y="120" width="240" height="30" as="geometry" />
        </mxCell>
        <mxCell id="D6_BeKRXkFvPXLh14fCc-11" value="" style="shape=partialRectangle;connectable=0;fillColor=none;top=0;left=0;bottom=0;right=0;editable=1;overflow=hidden;strokeColor=#006658;fontColor=#5C5C5C;" vertex="1" parent="D6_BeKRXkFvPXLh14fCc-10">
          <mxGeometry width="60" height="30" as="geometry" />
        </mxCell>
        <mxCell id="D6_BeKRXkFvPXLh14fCc-12" value="last_name: TEXT" style="shape=partialRectangle;connectable=0;fillColor=none;top=0;left=0;bottom=0;right=0;align=left;spacingLeft=6;overflow=hidden;strokeColor=#006658;fontColor=#5C5C5C;" vertex="1" parent="D6_BeKRXkFvPXLh14fCc-10">
          <mxGeometry x="60" width="180" height="30" as="geometry" />
        </mxCell>
        <mxCell id="D6_BeKRXkFvPXLh14fCc-13" value="Physical Design" style="text;html=1;strokeColor=none;fillColor=none;align=center;verticalAlign=middle;whiteSpace=wrap;rounded=0;fontColor=#5C5C5C;" vertex="1" parent="872lnzC2xmg9bQZJS1GH-1">
          <mxGeometry x="290" y="10" width="120" height="20" as="geometry" />
        </mxCell>
        <mxCell id="9aF89FgOhdlGvO4LALYj-0" value="Events" style="shape=table;startSize=30;container=1;collapsible=1;childLayout=tableLayout;fixedRows=1;rowLines=0;fontStyle=1;align=center;resizeLast=1;fillColor=#21C0A5;strokeColor=#006658;fontColor=#5C5C5C;" vertex="1" parent="872lnzC2xmg9bQZJS1GH-1">
          <mxGeometry x="120" y="280" width="240" height="160" as="geometry" />
        </mxCell>
        <mxCell id="9aF89FgOhdlGvO4LALYj-1" value="" style="shape=partialRectangle;collapsible=0;dropTarget=0;pointerEvents=0;fillColor=none;top=0;left=0;bottom=0;right=0;points=[[0,0.5],[1,0.5]];portConstraint=eastwest;strokeColor=#006658;fontColor=#5C5C5C;" vertex="1" parent="9aF89FgOhdlGvO4LALYj-0">
          <mxGeometry y="30" width="240" height="30" as="geometry" />
        </mxCell>
        <mxCell id="9aF89FgOhdlGvO4LALYj-2" value="PK" style="shape=partialRectangle;connectable=0;fillColor=none;top=0;left=0;bottom=0;right=0;fontStyle=1;overflow=hidden;strokeColor=#006658;fontColor=#5C5C5C;" vertex="1" parent="9aF89FgOhdlGvO4LALYj-1">
          <mxGeometry width="60" height="30" as="geometry" />
        </mxCell>
        <mxCell id="9aF89FgOhdlGvO4LALYj-3" value="id: INTEGER" style="shape=partialRectangle;connectable=0;fillColor=none;top=0;left=0;bottom=0;right=0;align=left;spacingLeft=6;fontStyle=5;overflow=hidden;strokeColor=#006658;fontColor=#5C5C5C;" vertex="1" parent="9aF89FgOhdlGvO4LALYj-1">
          <mxGeometry x="60" width="180" height="30" as="geometry" />
        </mxCell>
        <mxCell id="9aF89FgOhdlGvO4LALYj-4" value="" style="shape=partialRectangle;collapsible=0;dropTarget=0;pointerEvents=0;fillColor=none;top=0;left=0;bottom=1;right=0;points=[[0,0.5],[1,0.5]];portConstraint=eastwest;strokeColor=#006658;fontColor=#5C5C5C;" vertex="1" parent="9aF89FgOhdlGvO4LALYj-0">
          <mxGeometry y="60" width="240" height="30" as="geometry" />
        </mxCell>
        <mxCell id="9aF89FgOhdlGvO4LALYj-5" value="FK" style="shape=partialRectangle;connectable=0;fillColor=none;top=0;left=0;bottom=0;right=0;fontStyle=1;overflow=hidden;strokeColor=#006658;fontColor=#5C5C5C;" vertex="1" parent="9aF89FgOhdlGvO4LALYj-4">
          <mxGeometry width="60" height="30" as="geometry" />
        </mxCell>
        <mxCell id="9aF89FgOhdlGvO4LALYj-6" value="*host_id: INTEGER" style="shape=partialRectangle;connectable=0;fillColor=none;top=0;left=0;bottom=0;right=0;align=left;spacingLeft=6;fontStyle=1;overflow=hidden;strokeColor=#006658;fontColor=#5C5C5C;" vertex="1" parent="9aF89FgOhdlGvO4LALYj-4">
          <mxGeometry x="60" width="180" height="30" as="geometry" />
        </mxCell>
        <mxCell id="9aF89FgOhdlGvO4LALYj-7" value="" style="shape=partialRectangle;collapsible=0;dropTarget=0;pointerEvents=0;fillColor=none;top=0;left=0;bottom=0;right=0;points=[[0,0.5],[1,0.5]];portConstraint=eastwest;strokeColor=#006658;fontColor=#5C5C5C;" vertex="1" parent="9aF89FgOhdlGvO4LALYj-0">
          <mxGeometry y="90" width="240" height="30" as="geometry" />
        </mxCell>
        <mxCell id="9aF89FgOhdlGvO4LALYj-8" value="" style="shape=partialRectangle;connectable=0;fillColor=none;top=0;left=0;bottom=0;right=0;editable=1;overflow=hidden;strokeColor=#006658;fontColor=#5C5C5C;" vertex="1" parent="9aF89FgOhdlGvO4LALYj-7">
          <mxGeometry width="60" height="30" as="geometry" />
        </mxCell>
        <mxCell id="9aF89FgOhdlGvO4LALYj-9" value="name: TEXT" style="shape=partialRectangle;connectable=0;fillColor=none;top=0;left=0;bottom=0;right=0;align=left;spacingLeft=6;overflow=hidden;strokeColor=#006658;fontColor=#5C5C5C;" vertex="1" parent="9aF89FgOhdlGvO4LALYj-7">
          <mxGeometry x="60" width="180" height="30" as="geometry" />
        </mxCell>
        <mxCell id="9aF89FgOhdlGvO4LALYj-10" value="" style="shape=partialRectangle;collapsible=0;dropTarget=0;pointerEvents=0;fillColor=none;top=0;left=0;bottom=0;right=0;points=[[0,0.5],[1,0.5]];portConstraint=eastwest;strokeColor=#006658;fontColor=#5C5C5C;" vertex="1" parent="9aF89FgOhdlGvO4LALYj-0">
          <mxGeometry y="120" width="240" height="30" as="geometry" />
        </mxCell>
        <mxCell id="9aF89FgOhdlGvO4LALYj-11" value="" style="shape=partialRectangle;connectable=0;fillColor=none;top=0;left=0;bottom=0;right=0;editable=1;overflow=hidden;strokeColor=#006658;fontColor=#5C5C5C;" vertex="1" parent="9aF89FgOhdlGvO4LALYj-10">
          <mxGeometry width="60" height="30" as="geometry" />
        </mxCell>
        <mxCell id="9aF89FgOhdlGvO4LALYj-12" value="type: TEXT" style="shape=partialRectangle;connectable=0;fillColor=none;top=0;left=0;bottom=0;right=0;align=left;spacingLeft=6;overflow=hidden;strokeColor=#006658;fontColor=#5C5C5C;" vertex="1" parent="9aF89FgOhdlGvO4LALYj-10">
          <mxGeometry x="60" width="180" height="30" as="geometry" />
        </mxCell>
        <mxCell id="zzHx88cHZGhGz6dL2h8b-0" value="Organisations" style="shape=table;startSize=30;container=1;collapsible=1;childLayout=tableLayout;fixedRows=1;rowLines=0;fontStyle=1;align=center;resizeLast=1;fillColor=#21C0A5;strokeColor=#006658;fontColor=#5C5C5C;" vertex="1" parent="872lnzC2xmg9bQZJS1GH-1">
          <mxGeometry x="120" y="480" width="240" height="130" as="geometry" />
        </mxCell>
        <mxCell id="zzHx88cHZGhGz6dL2h8b-1" value="" style="shape=partialRectangle;collapsible=0;dropTarget=0;pointerEvents=0;fillColor=none;top=0;left=0;bottom=0;right=0;points=[[0,0.5],[1,0.5]];portConstraint=eastwest;strokeColor=#006658;fontColor=#5C5C5C;" vertex="1" parent="zzHx88cHZGhGz6dL2h8b-0">
          <mxGeometry y="30" width="240" height="30" as="geometry" />
        </mxCell>
        <mxCell id="zzHx88cHZGhGz6dL2h8b-2" value="PK" style="shape=partialRectangle;connectable=0;fillColor=none;top=0;left=0;bottom=0;right=0;fontStyle=1;overflow=hidden;strokeColor=#006658;fontColor=#5C5C5C;" vertex="1" parent="zzHx88cHZGhGz6dL2h8b-1">
          <mxGeometry width="60" height="30" as="geometry" />
        </mxCell>
        <mxCell id="zzHx88cHZGhGz6dL2h8b-3" value="id: INTEGER" style="shape=partialRectangle;connectable=0;fillColor=none;top=0;left=0;bottom=0;right=0;align=left;spacingLeft=6;fontStyle=5;overflow=hidden;strokeColor=#006658;fontColor=#5C5C5C;" vertex="1" parent="zzHx88cHZGhGz6dL2h8b-1">
          <mxGeometry x="60" width="180" height="30" as="geometry" />
        </mxCell>
        <mxCell id="zzHx88cHZGhGz6dL2h8b-4" value="" style="shape=partialRectangle;collapsible=0;dropTarget=0;pointerEvents=0;fillColor=none;top=0;left=0;bottom=1;right=0;points=[[0,0.5],[1,0.5]];portConstraint=eastwest;strokeColor=#006658;fontColor=#5C5C5C;" vertex="1" parent="zzHx88cHZGhGz6dL2h8b-0">
          <mxGeometry y="60" width="240" height="30" as="geometry" />
        </mxCell>
        <mxCell id="zzHx88cHZGhGz6dL2h8b-5" value="FK" style="shape=partialRectangle;connectable=0;fillColor=none;top=0;left=0;bottom=0;right=0;fontStyle=1;overflow=hidden;strokeColor=#006658;fontColor=#5C5C5C;" vertex="1" parent="zzHx88cHZGhGz6dL2h8b-4">
          <mxGeometry width="60" height="30" as="geometry" />
        </mxCell>
        <mxCell id="zzHx88cHZGhGz6dL2h8b-6" value="*location_id: INTEGER" style="shape=partialRectangle;connectable=0;fillColor=none;top=0;left=0;bottom=0;right=0;align=left;spacingLeft=6;fontStyle=1;overflow=hidden;strokeColor=#006658;fontColor=#5C5C5C;" vertex="1" parent="zzHx88cHZGhGz6dL2h8b-4">
          <mxGeometry x="60" width="180" height="30" as="geometry" />
        </mxCell>
        <mxCell id="zzHx88cHZGhGz6dL2h8b-7" value="" style="shape=partialRectangle;collapsible=0;dropTarget=0;pointerEvents=0;fillColor=none;top=0;left=0;bottom=0;right=0;points=[[0,0.5],[1,0.5]];portConstraint=eastwest;strokeColor=#006658;fontColor=#5C5C5C;" vertex="1" parent="zzHx88cHZGhGz6dL2h8b-0">
          <mxGeometry y="90" width="240" height="30" as="geometry" />
        </mxCell>
        <mxCell id="zzHx88cHZGhGz6dL2h8b-8" value="" style="shape=partialRectangle;connectable=0;fillColor=none;top=0;left=0;bottom=0;right=0;editable=1;overflow=hidden;strokeColor=#006658;fontColor=#5C5C5C;" vertex="1" parent="zzHx88cHZGhGz6dL2h8b-7">
          <mxGeometry width="60" height="30" as="geometry" />
        </mxCell>
        <mxCell id="zzHx88cHZGhGz6dL2h8b-9" value="name: TEXT" style="shape=partialRectangle;connectable=0;fillColor=none;top=0;left=0;bottom=0;right=0;align=left;spacingLeft=6;overflow=hidden;strokeColor=#006658;fontColor=#5C5C5C;" vertex="1" parent="zzHx88cHZGhGz6dL2h8b-7">
          <mxGeometry x="60" width="180" height="30" as="geometry" />
        </mxCell>
        <mxCell id="zzHx88cHZGhGz6dL2h8b-13" value="Locations" style="shape=table;startSize=30;container=1;collapsible=1;childLayout=tableLayout;fixedRows=1;rowLines=0;fontStyle=1;align=center;resizeLast=1;fillColor=#21C0A5;strokeColor=#006658;fontColor=#5C5C5C;" vertex="1" parent="872lnzC2xmg9bQZJS1GH-1">
          <mxGeometry x="120" y="640" width="240" height="150" as="geometry" />
        </mxCell>
        <mxCell id="zzHx88cHZGhGz6dL2h8b-14" value="" style="shape=partialRectangle;collapsible=0;dropTarget=0;pointerEvents=0;fillColor=none;top=0;left=0;bottom=0;right=0;points=[[0,0.5],[1,0.5]];portConstraint=eastwest;strokeColor=#006658;fontColor=#5C5C5C;" vertex="1" parent="zzHx88cHZGhGz6dL2h8b-13">
          <mxGeometry y="30" width="240" height="30" as="geometry" />
        </mxCell>
        <mxCell id="zzHx88cHZGhGz6dL2h8b-15" value="PK" style="shape=partialRectangle;connectable=0;fillColor=none;top=0;left=0;bottom=0;right=0;fontStyle=1;overflow=hidden;strokeColor=#006658;fontColor=#5C5C5C;" vertex="1" parent="zzHx88cHZGhGz6dL2h8b-14">
          <mxGeometry width="60" height="30" as="geometry" />
        </mxCell>
        <mxCell id="zzHx88cHZGhGz6dL2h8b-16" value="id: INTEGER" style="shape=partialRectangle;connectable=0;fillColor=none;top=0;left=0;bottom=0;right=0;align=left;spacingLeft=6;fontStyle=5;overflow=hidden;strokeColor=#006658;fontColor=#5C5C5C;" vertex="1" parent="zzHx88cHZGhGz6dL2h8b-14">
          <mxGeometry x="60" width="180" height="30" as="geometry" />
        </mxCell>
        <mxCell id="zzHx88cHZGhGz6dL2h8b-17" value="" style="shape=partialRectangle;collapsible=0;dropTarget=0;pointerEvents=0;fillColor=none;top=0;left=0;bottom=1;right=0;points=[[0,0.5],[1,0.5]];portConstraint=eastwest;strokeColor=#006658;fontColor=#5C5C5C;" vertex="1" parent="zzHx88cHZGhGz6dL2h8b-13">
          <mxGeometry y="60" width="240" height="20" as="geometry" />
        </mxCell>
        <mxCell id="zzHx88cHZGhGz6dL2h8b-18" value="" style="shape=partialRectangle;connectable=0;fillColor=none;top=0;left=0;bottom=0;right=0;fontStyle=1;overflow=hidden;strokeColor=#006658;fontColor=#5C5C5C;" vertex="1" parent="zzHx88cHZGhGz6dL2h8b-17">
          <mxGeometry width="60" height="20" as="geometry" />
        </mxCell>
        <mxCell id="zzHx88cHZGhGz6dL2h8b-19" value="" style="shape=partialRectangle;connectable=0;fillColor=none;top=0;left=0;bottom=0;right=0;align=left;spacingLeft=6;fontStyle=5;overflow=hidden;strokeColor=#006658;fontColor=#5C5C5C;" vertex="1" parent="zzHx88cHZGhGz6dL2h8b-17">
          <mxGeometry x="60" width="180" height="20" as="geometry" />
        </mxCell>
        <mxCell id="zzHx88cHZGhGz6dL2h8b-20" value="" style="shape=partialRectangle;collapsible=0;dropTarget=0;pointerEvents=0;fillColor=none;top=0;left=0;bottom=0;right=0;points=[[0,0.5],[1,0.5]];portConstraint=eastwest;strokeColor=#006658;fontColor=#5C5C5C;" vertex="1" parent="zzHx88cHZGhGz6dL2h8b-13">
          <mxGeometry y="80" width="240" height="30" as="geometry" />
        </mxCell>
        <mxCell id="zzHx88cHZGhGz6dL2h8b-21" value="" style="shape=partialRectangle;connectable=0;fillColor=none;top=0;left=0;bottom=0;right=0;editable=1;overflow=hidden;strokeColor=#006658;fontColor=#5C5C5C;" vertex="1" parent="zzHx88cHZGhGz6dL2h8b-20">
          <mxGeometry width="60" height="30" as="geometry" />
        </mxCell>
        <mxCell id="zzHx88cHZGhGz6dL2h8b-22" value="city: TEXT" style="shape=partialRectangle;connectable=0;fillColor=none;top=0;left=0;bottom=0;right=0;align=left;spacingLeft=6;overflow=hidden;strokeColor=#006658;fontColor=#5C5C5C;" vertex="1" parent="zzHx88cHZGhGz6dL2h8b-20">
          <mxGeometry x="60" width="180" height="30" as="geometry" />
        </mxCell>
        <mxCell id="zzHx88cHZGhGz6dL2h8b-23" value="" style="shape=partialRectangle;collapsible=0;dropTarget=0;pointerEvents=0;fillColor=none;top=0;left=0;bottom=0;right=0;points=[[0,0.5],[1,0.5]];portConstraint=eastwest;strokeColor=#006658;fontColor=#5C5C5C;" vertex="1" parent="zzHx88cHZGhGz6dL2h8b-13">
          <mxGeometry y="110" width="240" height="30" as="geometry" />
        </mxCell>
        <mxCell id="zzHx88cHZGhGz6dL2h8b-24" value="" style="shape=partialRectangle;connectable=0;fillColor=none;top=0;left=0;bottom=0;right=0;editable=1;overflow=hidden;strokeColor=#006658;fontColor=#5C5C5C;" vertex="1" parent="zzHx88cHZGhGz6dL2h8b-23">
          <mxGeometry width="60" height="30" as="geometry" />
        </mxCell>
        <mxCell id="zzHx88cHZGhGz6dL2h8b-25" value="country: TEXT" style="shape=partialRectangle;connectable=0;fillColor=none;top=0;left=0;bottom=0;right=0;align=left;spacingLeft=6;overflow=hidden;strokeColor=#006658;fontColor=#5C5C5C;" vertex="1" parent="zzHx88cHZGhGz6dL2h8b-23">
          <mxGeometry x="60" width="180" height="30" as="geometry" />
        </mxCell>
        <mxCell id="zzHx88cHZGhGz6dL2h8b-26" value="Events Presenter" style="shape=table;startSize=30;container=1;collapsible=1;childLayout=tableLayout;fixedRows=1;rowLines=0;fontStyle=1;align=center;resizeLast=1;fillColor=#21C0A5;strokeColor=#006658;fontColor=#5C5C5C;" vertex="1" parent="872lnzC2xmg9bQZJS1GH-1">
          <mxGeometry x="480" y="150" width="240" height="90" as="geometry" />
        </mxCell>
        <mxCell id="zzHx88cHZGhGz6dL2h8b-27" value="" style="shape=partialRectangle;collapsible=0;dropTarget=0;pointerEvents=0;fillColor=none;top=0;left=0;bottom=0;right=0;points=[[0,0.5],[1,0.5]];portConstraint=eastwest;strokeColor=#006658;fontColor=#5C5C5C;" vertex="1" parent="zzHx88cHZGhGz6dL2h8b-26">
          <mxGeometry y="30" width="240" height="30" as="geometry" />
        </mxCell>
        <mxCell id="zzHx88cHZGhGz6dL2h8b-28" value="FK1" style="shape=partialRectangle;connectable=0;fillColor=none;top=0;left=0;bottom=0;right=0;fontStyle=1;overflow=hidden;strokeColor=#006658;fontColor=#5C5C5C;" vertex="1" parent="zzHx88cHZGhGz6dL2h8b-27">
          <mxGeometry width="60" height="30" as="geometry" />
        </mxCell>
        <mxCell id="zzHx88cHZGhGz6dL2h8b-29" value="*presenter_id: INTEGER" style="shape=partialRectangle;connectable=0;fillColor=none;top=0;left=0;bottom=0;right=0;align=left;spacingLeft=6;fontStyle=1;overflow=hidden;strokeColor=#006658;fontColor=#5C5C5C;" vertex="1" parent="zzHx88cHZGhGz6dL2h8b-27">
          <mxGeometry x="60" width="180" height="30" as="geometry" />
        </mxCell>
        <mxCell id="zzHx88cHZGhGz6dL2h8b-30" value="" style="shape=partialRectangle;collapsible=0;dropTarget=0;pointerEvents=0;fillColor=none;top=0;left=0;bottom=1;right=0;points=[[0,0.5],[1,0.5]];portConstraint=eastwest;strokeColor=#006658;fontColor=#5C5C5C;" vertex="1" parent="zzHx88cHZGhGz6dL2h8b-26">
          <mxGeometry y="60" width="240" height="30" as="geometry" />
        </mxCell>
        <mxCell id="zzHx88cHZGhGz6dL2h8b-31" value="FK2" style="shape=partialRectangle;connectable=0;fillColor=none;top=0;left=0;bottom=0;right=0;fontStyle=1;overflow=hidden;strokeColor=#006658;fontColor=#5C5C5C;" vertex="1" parent="zzHx88cHZGhGz6dL2h8b-30">
          <mxGeometry width="60" height="30" as="geometry" />
        </mxCell>
        <mxCell id="zzHx88cHZGhGz6dL2h8b-32" value="*event_id: INTEGER" style="shape=partialRectangle;connectable=0;fillColor=none;top=0;left=0;bottom=0;right=0;align=left;spacingLeft=6;fontStyle=1;overflow=hidden;strokeColor=#006658;fontColor=#5C5C5C;" vertex="1" parent="zzHx88cHZGhGz6dL2h8b-30">
          <mxGeometry x="60" width="180" height="30" as="geometry" />
        </mxCell>
        <mxCell id="TuL850r55KnXR3oQN4lt-1" value="" style="edgeStyle=orthogonalEdgeStyle;fontSize=12;html=1;endArrow=ERoneToMany;exitX=0;exitY=0.5;exitDx=0;exitDy=0;entryX=0;entryY=0.5;entryDx=0;entryDy=0;strokeColor=#006658;fontColor=#5C5C5C;" edge="1" parent="872lnzC2xmg9bQZJS1GH-1" source="zzHx88cHZGhGz6dL2h8b-14" target="zzHx88cHZGhGz6dL2h8b-4">
          <mxGeometry width="100" height="100" relative="1" as="geometry">
            <mxPoint x="440" y="540" as="sourcePoint" />
            <mxPoint x="540" y="440" as="targetPoint" />
            <Array as="points">
              <mxPoint x="80" y="685" />
              <mxPoint x="80" y="555" />
            </Array>
          </mxGeometry>
        </mxCell>
        <mxCell id="TuL850r55KnXR3oQN4lt-2" value="" style="edgeStyle=orthogonalEdgeStyle;fontSize=12;html=1;endArrow=ERoneToMany;exitX=0;exitY=0.5;exitDx=0;exitDy=0;entryX=0;entryY=0.5;entryDx=0;entryDy=0;strokeColor=#006658;fontColor=#5C5C5C;" edge="1" parent="872lnzC2xmg9bQZJS1GH-1" target="9aF89FgOhdlGvO4LALYj-4">
          <mxGeometry width="100" height="100" relative="1" as="geometry">
            <mxPoint x="120" y="530" as="sourcePoint" />
            <mxPoint x="120" y="400" as="targetPoint" />
            <Array as="points">
              <mxPoint x="80" y="530" />
              <mxPoint x="80" y="355" />
            </Array>
          </mxGeometry>
        </mxCell>
        <mxCell id="TuL850r55KnXR3oQN4lt-3" value="" style="edgeStyle=orthogonalEdgeStyle;fontSize=12;html=1;endArrow=ERoneToMany;exitX=0;exitY=0.5;exitDx=0;exitDy=0;entryX=0;entryY=0.5;entryDx=0;entryDy=0;strokeColor=#006658;fontColor=#5C5C5C;" edge="1" parent="872lnzC2xmg9bQZJS1GH-1" source="zzHx88cHZGhGz6dL2h8b-1" target="D6_BeKRXkFvPXLh14fCc-4">
          <mxGeometry width="100" height="100" relative="1" as="geometry">
            <mxPoint x="120" y="535" as="sourcePoint" />
            <mxPoint x="120" y="360" as="targetPoint" />
            <Array as="points">
              <mxPoint x="120" y="530" />
              <mxPoint x="60" y="530" />
              <mxPoint x="60" y="155" />
            </Array>
          </mxGeometry>
        </mxCell>
        <mxCell id="TuL850r55KnXR3oQN4lt-8" value="" style="edgeStyle=orthogonalEdgeStyle;fontSize=12;html=1;endArrow=ERoneToMany;exitX=0;exitY=0.5;exitDx=0;exitDy=0;entryX=0;entryY=0.5;entryDx=0;entryDy=0;strokeColor=#006658;fontColor=#5C5C5C;" edge="1" parent="872lnzC2xmg9bQZJS1GH-1" source="D6_BeKRXkFvPXLh14fCc-1" target="zzHx88cHZGhGz6dL2h8b-27">
          <mxGeometry width="100" height="100" relative="1" as="geometry">
            <mxPoint x="440" y="540" as="sourcePoint" />
            <mxPoint x="540" y="440" as="targetPoint" />
            <Array as="points">
              <mxPoint x="110" y="125" />
              <mxPoint x="110" y="50" />
              <mxPoint x="430" y="50" />
              <mxPoint x="430" y="195" />
            </Array>
          </mxGeometry>
        </mxCell>
        <mxCell id="TuL850r55KnXR3oQN4lt-9" value="" style="edgeStyle=orthogonalEdgeStyle;fontSize=12;html=1;endArrow=ERoneToMany;exitX=0;exitY=0.5;exitDx=0;exitDy=0;entryX=0;entryY=0.5;entryDx=0;entryDy=0;strokeColor=#006658;fontColor=#5C5C5C;" edge="1" parent="872lnzC2xmg9bQZJS1GH-1" source="9aF89FgOhdlGvO4LALYj-1" target="zzHx88cHZGhGz6dL2h8b-30">
          <mxGeometry width="100" height="100" relative="1" as="geometry">
            <mxPoint x="440" y="520" as="sourcePoint" />
            <mxPoint x="540" y="420" as="targetPoint" />
            <Array as="points">
              <mxPoint x="110" y="325" />
              <mxPoint x="110" y="260" />
              <mxPoint x="430" y="260" />
              <mxPoint x="430" y="225" />
            </Array>
          </mxGeometry>
        </mxCell>
      </root>
    </mxGraphModel>
  </diagram>
</mxfile>
